<?xml version="1.0" encoding="UTF-8" standalone="no"?>
<!DOCTYPE svg PUBLIC "-//W3C//DTD SVG 1.1//EN"
 "http://www.w3.org/Graphics/SVG/1.1/DTD/svg11.dtd">
<!-- Generated by graphviz version 5.0.1 (20220820.1526)
 -->
<!-- Pages: 1 -->
<svg width="791pt" height="476pt"
 viewBox="0.00 0.00 790.69 476.00" xmlns="http://www.w3.org/2000/svg" xmlns:xlink="http://www.w3.org/1999/xlink">
<g id="graph0" class="graph" transform="scale(1 1) rotate(0) translate(4 472)">
<polygon fill="white" stroke="none" points="-4,4 -4,-472 786.69,-472 786.69,4 -4,4"/>
<!-- Unitful -->
<g id="node1" class="node">
<title>Unitful</title>
<ellipse fill="none" stroke="black" cx="500.55" cy="-450" rx="37.09" ry="18"/>
<text text-anchor="middle" x="500.55" y="-446.3" font-family="sans-serif" font-size="14.00">Unitful</text>
</g>
<!-- ConstructionBase -->
<g id="node2" class="node">
<title>ConstructionBase</title>
<ellipse fill="none" stroke="black" cx="360.55" cy="-378" rx="80.69" ry="18"/>
<text text-anchor="middle" x="360.55" y="-374.3" font-family="sans-serif" font-size="14.00">ConstructionBase</text>
</g>
<!-- Unitful&#45;&gt;ConstructionBase -->
<g id="edge1" class="edge">
<title>Unitful&#45;&gt;ConstructionBase</title>
<path fill="none" stroke="black" d="M475.52,-436.49C454.53,-425.99 424.19,-410.82 399.95,-398.7"/>
<polygon fill="black" stroke="black" points="401.23,-395.9 391.98,-394.72 398.48,-401.41 401.23,-395.9"/>
</g>
<!-- LinearAlgebra -->
<g id="node3" class="node">
<title>LinearAlgebra</title>
<ellipse fill="none" stroke="black" cx="387.55" cy="-306" rx="66.89" ry="18"/>
<text text-anchor="middle" x="387.55" y="-302.3" font-family="sans-serif" font-size="14.00">LinearAlgebra</text>
</g>
<!-- Unitful&#45;&gt;LinearAlgebra -->
<g id="edge16" class="edge">
<title>Unitful&#45;&gt;LinearAlgebra</title>
<path fill="none" stroke="black" d="M493.31,-432.14C484.76,-413.35 469.31,-382.66 450.55,-360 440.97,-348.44 428.66,-337.45 417.45,-328.5"/>
<polygon fill="black" stroke="black" points="419.13,-325.9 410.29,-322.93 415.35,-330.77 419.13,-325.9"/>
</g>
<!-- Dates -->
<g id="node9" class="node">
<title>Dates</title>
<ellipse fill="none" stroke="black" cx="531.55" cy="-378" rx="33.6" ry="18"/>
<text text-anchor="middle" x="531.55" y="-374.3" font-family="sans-serif" font-size="14.00">Dates</text>
</g>
<!-- Unitful&#45;&gt;Dates -->
<g id="edge13" class="edge">
<title>Unitful&#45;&gt;Dates</title>
<path fill="none" stroke="black" d="M508.05,-432.05C511.78,-423.63 516.37,-413.28 520.49,-403.97"/>
<polygon fill="black" stroke="black" points="523.36,-405.08 524.11,-395.79 517.73,-402.59 523.36,-405.08"/>
</g>
<!-- Random -->
<g id="node12" class="node">
<title>Random</title>
<ellipse fill="none" stroke="black" cx="628.55" cy="-378" rx="44.69" ry="18"/>
<text text-anchor="middle" x="628.55" y="-374.3" font-family="sans-serif" font-size="14.00">Random</text>
</g>
<!-- Unitful&#45;&gt;Random -->
<g id="edge17" class="edge">
<title>Unitful&#45;&gt;Random</title>
<path fill="none" stroke="black" d="M524.32,-436C544.28,-425.08 573.02,-409.36 595.27,-397.2"/>
<polygon fill="black" stroke="black" points="596.9,-399.82 603.14,-392.89 593.95,-394.41 596.9,-399.82"/>
</g>
<!-- ConstructionBase&#45;&gt;LinearAlgebra -->
<g id="edge2" class="edge">
<title>ConstructionBase&#45;&gt;LinearAlgebra</title>
<path fill="none" stroke="black" d="M367.08,-360.05C370.25,-351.84 374.13,-341.79 377.65,-332.66"/>
<polygon fill="black" stroke="black" points="380.59,-333.59 380.88,-324.28 374.84,-331.38 380.59,-333.59"/>
</g>
<!-- Libdl -->
<g id="node4" class="node">
<title>Libdl</title>
<ellipse fill="none" stroke="black" cx="366.55" cy="-18" rx="29.8" ry="18"/>
<text text-anchor="middle" x="366.55" y="-14.3" font-family="sans-serif" font-size="14.00">Libdl</text>
</g>
<!-- LinearAlgebra&#45;&gt;Libdl -->
<g id="edge3" class="edge">
<title>LinearAlgebra&#45;&gt;Libdl</title>
<path fill="none" stroke="black" d="M386.51,-287.74C384.16,-249.09 378.12,-152.62 371.55,-72 370.83,-63.21 369.95,-53.6 369.13,-45.01"/>
<polygon fill="black" stroke="black" points="372.19,-44.64 368.28,-36.18 366.06,-45.23 372.19,-44.64"/>
</g>
<!-- libblastrampoline_jll -->
<g id="node5" class="node">
<title>libblastrampoline_jll</title>
<ellipse fill="none" stroke="black" cx="274.55" cy="-234" rx="90.98" ry="18"/>
<text text-anchor="middle" x="274.55" y="-230.3" font-family="sans-serif" font-size="14.00">libblastrampoline_jll</text>
</g>
<!-- LinearAlgebra&#45;&gt;libblastrampoline_jll -->
<g id="edge4" class="edge">
<title>LinearAlgebra&#45;&gt;libblastrampoline_jll</title>
<path fill="none" stroke="black" d="M362.19,-289.29C346.39,-279.5 325.86,-266.79 308.65,-256.12"/>
<polygon fill="black" stroke="black" points="310.1,-253.4 301,-251.39 306.86,-258.64 310.1,-253.4"/>
</g>
<!-- libblastrampoline_jll&#45;&gt;Libdl -->
<g id="edge6" class="edge">
<title>libblastrampoline_jll&#45;&gt;Libdl</title>
<path fill="none" stroke="black" d="M289.88,-216.06C298.58,-206 309.33,-192.75 317.55,-180 336.93,-149.93 342.82,-142.13 353.55,-108 360.04,-87.32 363.31,-62.9 364.95,-44.88"/>
<polygon fill="black" stroke="black" points="368.02,-45.11 365.67,-36.09 361.88,-44.61 368.02,-45.11"/>
</g>
<!-- Artifacts -->
<g id="node6" class="node">
<title>Artifacts</title>
<ellipse fill="none" stroke="black" cx="43.55" cy="-18" rx="43.59" ry="18"/>
<text text-anchor="middle" x="43.55" y="-14.3" font-family="sans-serif" font-size="14.00">Artifacts</text>
</g>
<!-- libblastrampoline_jll&#45;&gt;Artifacts -->
<g id="edge5" class="edge">
<title>libblastrampoline_jll&#45;&gt;Artifacts</title>
<path fill="none" stroke="black" d="M216.78,-220.08C160.97,-204.17 79.61,-171.13 42.55,-108 31.39,-88.99 32.97,-63.53 36.57,-44.71"/>
<polygon fill="black" stroke="black" points="39.59,-45.32 38.45,-36.06 33.57,-44.01 39.59,-45.32"/>
</g>
<!-- OpenBLAS_jll -->
<g id="node7" class="node">
<title>OpenBLAS_jll</title>
<ellipse fill="none" stroke="black" cx="244.55" cy="-162" rx="64.19" ry="18"/>
<text text-anchor="middle" x="244.55" y="-158.3" font-family="sans-serif" font-size="14.00">OpenBLAS_jll</text>
</g>
<!-- libblastrampoline_jll&#45;&gt;OpenBLAS_jll -->
<g id="edge7" class="edge">
<title>libblastrampoline_jll&#45;&gt;OpenBLAS_jll</title>
<path fill="none" stroke="black" d="M267.28,-216.05C263.73,-207.75 259.37,-197.58 255.42,-188.38"/>
<polygon fill="black" stroke="black" points="258.25,-187.15 251.95,-180.28 252.59,-189.58 258.25,-187.15"/>
</g>
<!-- OpenBLAS_jll&#45;&gt;Libdl -->
<g id="edge12" class="edge">
<title>OpenBLAS_jll&#45;&gt;Libdl</title>
<path fill="none" stroke="black" d="M277.04,-146.46C294.21,-137.43 314.57,-124.41 328.55,-108 344.26,-89.56 354.32,-63.67 360.12,-44.56"/>
<polygon fill="black" stroke="black" points="363.1,-45.36 362.56,-36.05 357.17,-43.66 363.1,-45.36"/>
</g>
<!-- OpenBLAS_jll&#45;&gt;Artifacts -->
<g id="edge8" class="edge">
<title>OpenBLAS_jll&#45;&gt;Artifacts</title>
<path fill="none" stroke="black" d="M181.28,-158.48C141.75,-153.5 92.79,-140.54 62.55,-108 46.92,-91.19 42.91,-64.81 42.37,-45.13"/>
<polygon fill="black" stroke="black" points="45.44,-44.87 42.34,-36.07 39.28,-44.88 45.44,-44.87"/>
</g>
<!-- CompilerSupportLibraries_jll -->
<g id="node8" class="node">
<title>CompilerSupportLibraries_jll</title>
<ellipse fill="none" stroke="black" cx="195.55" cy="-90" rx="124.28" ry="18"/>
<text text-anchor="middle" x="195.55" y="-86.3" font-family="sans-serif" font-size="14.00">CompilerSupportLibraries_jll</text>
</g>
<!-- OpenBLAS_jll&#45;&gt;CompilerSupportLibraries_jll -->
<g id="edge9" class="edge">
<title>OpenBLAS_jll&#45;&gt;CompilerSupportLibraries_jll</title>
<path fill="none" stroke="black" d="M232.68,-144.05C226.7,-135.5 219.32,-124.96 212.72,-115.54"/>
<polygon fill="black" stroke="black" points="215.21,-113.72 207.64,-108.28 210.16,-117.25 215.21,-113.72"/>
</g>
<!-- CompilerSupportLibraries_jll&#45;&gt;Libdl -->
<g id="edge11" class="edge">
<title>CompilerSupportLibraries_jll&#45;&gt;Libdl</title>
<path fill="none" stroke="black" d="M235.21,-72.76C265.25,-60.47 306.01,-43.78 334.12,-32.27"/>
<polygon fill="black" stroke="black" points="335.43,-35.07 342.41,-28.88 333.1,-29.36 335.43,-35.07"/>
</g>
<!-- CompilerSupportLibraries_jll&#45;&gt;Artifacts -->
<g id="edge10" class="edge">
<title>CompilerSupportLibraries_jll&#45;&gt;Artifacts</title>
<path fill="none" stroke="black" d="M159.91,-72.59C135.89,-61.53 104.29,-46.98 80.09,-35.83"/>
<polygon fill="black" stroke="black" points="81.14,-32.92 71.86,-32.04 78.56,-38.52 81.14,-32.92"/>
</g>
<!-- Printf -->
<g id="node10" class="node">
<title>Printf</title>
<ellipse fill="none" stroke="black" cx="531.55" cy="-306" rx="32.49" ry="18"/>
<text text-anchor="middle" x="531.55" y="-302.3" font-family="sans-serif" font-size="14.00">Printf</text>
</g>
<!-- Dates&#45;&gt;Printf -->
<g id="edge14" class="edge">
<title>Dates&#45;&gt;Printf</title>
<path fill="none" stroke="black" d="M531.55,-359.7C531.55,-351.64 531.55,-341.89 531.55,-332.98"/>
<polygon fill="black" stroke="black" points="534.63,-332.9 531.55,-324.1 528.47,-332.9 534.63,-332.9"/>
</g>
<!-- Unicode -->
<g id="node11" class="node">
<title>Unicode</title>
<ellipse fill="none" stroke="black" cx="531.55" cy="-234" rx="43.59" ry="18"/>
<text text-anchor="middle" x="531.55" y="-230.3" font-family="sans-serif" font-size="14.00">Unicode</text>
</g>
<!-- Printf&#45;&gt;Unicode -->
<g id="edge15" class="edge">
<title>Printf&#45;&gt;Unicode</title>
<path fill="none" stroke="black" d="M531.55,-287.7C531.55,-279.64 531.55,-269.89 531.55,-260.98"/>
<polygon fill="black" stroke="black" points="534.63,-260.9 531.55,-252.1 528.47,-260.9 534.63,-260.9"/>
</g>
<!-- SHA -->
<g id="node13" class="node">
<title>SHA</title>
<ellipse fill="none" stroke="black" cx="618.55" cy="-306" rx="27.9" ry="18"/>
<text text-anchor="middle" x="618.55" y="-302.3" font-family="sans-serif" font-size="14.00">SHA</text>
</g>
<!-- Random&#45;&gt;SHA -->
<g id="edge18" class="edge">
<title>Random&#45;&gt;SHA</title>
<path fill="none" stroke="black" d="M626.07,-359.7C624.92,-351.64 623.53,-341.89 622.26,-332.98"/>
<polygon fill="black" stroke="black" points="625.28,-332.38 620.99,-324.1 619.19,-333.25 625.28,-332.38"/>
</g>
<!-- Serialization -->
<g id="node14" class="node">
<title>Serialization</title>
<ellipse fill="none" stroke="black" cx="723.55" cy="-306" rx="59.29" ry="18"/>
<text text-anchor="middle" x="723.55" y="-302.3" font-family="sans-serif" font-size="14.00">Serialization</text>
</g>
<!-- Random&#45;&gt;Serialization -->
<g id="edge19" class="edge">
<title>Random&#45;&gt;Serialization</title>
<path fill="none" stroke="black" d="M649.16,-361.81C662.45,-352.02 679.93,-339.14 694.6,-328.33"/>
<polygon fill="black" stroke="black" points="696.73,-330.59 701.98,-322.89 693.07,-325.63 696.73,-330.59"/>
</g>
</g>
</svg>
