<?xml version="1.0" encoding="UTF-8" standalone="no"?>
<!DOCTYPE svg PUBLIC "-//W3C//DTD SVG 1.1//EN" "http://www.w3.org/Graphics/SVG/1.1/DTD/svg11.dtd">
<!-- Generated by graphviz version 5.0.1 (20220820.1526)
 -->
<!-- Pages: 1 -->
<svg xmlns="http://www.w3.org/2000/svg" xmlns:xlink="http://www.w3.org/1999/xlink" width="701pt" height="476pt" viewBox="0.00 0.00 700.50 476.00"><style>
.node ellipse { stroke: black; fill: white }
.node text    { fill: black }
.edge path    { stroke: black }
.edge polygon { stroke: black; fill: black }

@media (prefers-color-scheme: dark) {
.node ellipse { stroke: white; fill: black }
.node text    { fill: white }
.edge path    { stroke: white }
.edge polygon { stroke: white; fill: white }
}

svg { color-scheme: light dark }
text {
    text-anchor: middle;
    font-family: sans-serif;
}
.faded-fill { fill: gray !important }
.faded-stroke { stroke: gray !important }
</style>
<g id="graph0" class="graph" transform="scale(1 1) rotate(0) translate(4 472)">
<!-- Unitful -->
<g id="node1" class="node">
<title>Unitful</title>
<polygon fill="none" stroke="none" points="461,-468 389,-468 389,-432 461,-432 461,-468"/>
<text x="425" y="-446.3" font-size="14.00">Unitful</text>
</g>
<!-- ConstructionBase -->
<g id="node2" class="node">
<title>ConstructionBase</title>
<polygon fill="none" stroke="none" points="365,-396 241,-396 241,-360 365,-360 365,-396"/>
<text x="303" y="-374.3" font-size="14.00">ConstructionBase</text>
</g>
<!-- Unitful&#45;&gt;ConstructionBase -->
<g id="edge1" class="edge">
<title>Unitful-&gt;ConstructionBase</title>
<path fill="none" d="M395.16,-431.88C378.61,-422.38 357.89,-410.5 340.29,-400.4"/>
<polygon points="341.29,-397.74 332.96,-396.19 338.5,-402.6 341.29,-397.74"/>
</g>
<!-- LinearAlgebra -->
<g id="node3" class="node">
<title>LinearAlgebra</title>
<polygon fill="none" stroke="none" points="378.5,-324 275.5,-324 275.5,-288 378.5,-288 378.5,-324"/>
<text x="327" y="-302.3" font-size="14.00" fill="gray" class="faded-fill">LinearAlgebra</text>
</g>
<!-- Unitful&#45;&gt;LinearAlgebra -->
<g id="edge16" class="edge">
<title>Unitful-&gt;LinearAlgebra</title>
<path fill="none" d="M416.58,-431.97C407.18,-413.57 391.04,-383.72 374,-360 366.65,-349.77 357.67,-339.25 349.53,-330.3" class="faded-stroke"/>
<polygon points="351.54,-328.36 344.06,-324.38 347.43,-332.16 351.54,-328.36" class="faded-stroke faded-fill"/>
</g>
<!-- Dates -->
<g id="node9" class="node">
<title>Dates</title>
<polygon fill="none" stroke="none" points="493,-396 421,-396 421,-360 493,-360 493,-396"/>
<text x="457" y="-374.3" font-size="14.00" fill="gray" class="faded-fill">Dates</text>
</g>
<!-- Unitful&#45;&gt;Dates -->
<g id="edge13" class="edge">
<title>Unitful-&gt;Dates</title>
<path fill="none" d="M432.91,-431.7C436.79,-423.22 441.52,-412.86 445.76,-403.58" class="faded-stroke"/>
<polygon points="448.4,-404.54 449.18,-396.1 443.31,-402.22 448.4,-404.54" class="faded-stroke faded-fill"/>
</g>
<!-- Random -->
<g id="node12" class="node">
<title>Random</title>
<polygon fill="none" stroke="none" points="583,-396 511,-396 511,-360 583,-360 583,-396"/>
<text x="547" y="-374.3" font-size="14.00" fill="gray" class="faded-fill">Random</text>
</g>
<!-- Unitful&#45;&gt;Random -->
<g id="edge17" class="edge">
<title>Unitful-&gt;Random</title>
<path fill="none" d="M454.84,-431.88C471.39,-422.38 492.11,-410.5 509.71,-400.4" class="faded-stroke"/>
<polygon points="511.5,-402.6 517.04,-396.19 508.71,-397.74 511.5,-402.6" class="faded-stroke faded-fill"/>
</g>
<!-- ConstructionBase&#45;&gt;LinearAlgebra -->
<g id="edge2" class="edge">
<title>ConstructionBase-&gt;LinearAlgebra</title>
<path fill="none" d="M308.93,-359.7C311.81,-351.3 315.32,-341.07 318.48,-331.86" class="faded-stroke"/>
<polygon points="321.19,-332.58 321.14,-324.1 315.89,-330.76 321.19,-332.58" class="faded-stroke faded-fill"/>
</g>
<!-- Libdl -->
<g id="node4" class="node">
<title>Libdl</title>
<polygon fill="none" stroke="none" points="339,-36 267,-36 267,0 339,0 339,-36"/>
<text x="303" y="-14.3" font-size="14.00" fill="gray" class="faded-fill">Libdl</text>
</g>
<!-- LinearAlgebra&#45;&gt;Libdl -->
<g id="edge3" class="edge">
<title>LinearAlgebra-&gt;Libdl</title>
<path fill="none" d="M325.57,-287.97C321.52,-239.7 309.95,-101.8 305.14,-44.47" class="faded-stroke"/>
<polygon points="307.91,-44.04 304.45,-36.31 302.33,-44.51 307.91,-44.04" class="faded-stroke faded-fill"/>
</g>
<!-- libblastrampoline_jll -->
<g id="node5" class="node">
<title>libblastrampoline_jll</title>
<polygon fill="none" stroke="none" points="302,-252 162,-252 162,-216 302,-216 302,-252"/>
<text x="232" y="-230.3" font-size="14.00" fill="gray" class="faded-fill">libblastrampoline_jll</text>
</g>
<!-- LinearAlgebra&#45;&gt;libblastrampoline_jll -->
<g id="edge4" class="edge">
<title>LinearAlgebra-&gt;libblastrampoline_jll</title>
<path fill="none" d="M303.52,-287.7C290.98,-278.46 275.41,-266.98 262,-257.11" class="faded-stroke"/>
<polygon points="263.31,-254.6 255.21,-252.1 259.99,-259.1 263.31,-254.6" class="faded-stroke faded-fill"/>
</g>
<!-- libblastrampoline_jll&#45;&gt;Libdl -->
<g id="edge6" class="edge">
<title>libblastrampoline_jll-&gt;Libdl</title>
<path fill="none" d="M241.85,-215.59C247.47,-205.37 254.47,-192.12 260,-180 274.27,-148.77 278.88,-141.1 288,-108 293.8,-86.97 297.72,-62.49 300.1,-44.54" class="faded-stroke"/>
<polygon points="302.92,-44.58 301.15,-36.29 297.36,-43.87 302.92,-44.58" class="faded-stroke faded-fill"/>
</g>
<!-- Artifacts -->
<g id="node6" class="node">
<title>Artifacts</title>
<polygon fill="none" stroke="none" points="72,-36 0,-36 0,0 72,0 72,-36"/>
<text x="36" y="-14.3" font-size="14.00" fill="gray" class="faded-fill">Artifacts</text>
</g>
<!-- libblastrampoline_jll&#45;&gt;Artifacts -->
<g id="edge5" class="edge">
<title>libblastrampoline_jll-&gt;Artifacts</title>
<path fill="none" d="M178.04,-215.83C130.59,-197.5 64.62,-163.35 35,-108 24.57,-88.51 26.11,-63 29.5,-44.29" class="faded-stroke"/>
<polygon points="32.29,-44.62 31.15,-36.22 26.8,-43.5 32.29,-44.62" class="faded-stroke faded-fill"/>
</g>
<!-- OpenBLAS_jll -->
<g id="node7" class="node">
<title>OpenBLAS_jll</title>
<polygon fill="none" stroke="none" points="251.5,-180 152.5,-180 152.5,-144 251.5,-144 251.5,-180"/>
<text x="202" y="-158.3" font-size="14.00" fill="gray" class="faded-fill">OpenBLAS_jll</text>
</g>
<!-- libblastrampoline_jll&#45;&gt;OpenBLAS_jll -->
<g id="edge7" class="edge">
<title>libblastrampoline_jll-&gt;OpenBLAS_jll</title>
<path fill="none" d="M224.58,-215.7C220.95,-207.22 216.51,-196.86 212.54,-187.58" class="faded-stroke"/>
<polygon points="215.06,-186.35 209.33,-180.1 209.91,-188.56 215.06,-186.35" class="faded-stroke faded-fill"/>
</g>
<!-- OpenBLAS_jll&#45;&gt;Libdl -->
<g id="edge12" class="edge">
<title>OpenBLAS_jll-&gt;Libdl</title>
<path fill="none" d="M227.02,-143.81C239.38,-134.35 253.79,-121.76 264,-108 278.45,-88.53 288.96,-62.86 295.41,-44.1" class="faded-stroke"/>
<polygon points="298.15,-44.74 298.01,-36.27 292.83,-42.98 298.15,-44.74" class="faded-stroke faded-fill"/>
</g>
<!-- OpenBLAS_jll&#45;&gt;Artifacts -->
<g id="edge8" class="edge">
<title>OpenBLAS_jll-&gt;Artifacts</title>
<path fill="none" d="M152.43,-155.51C120.11,-149.31 79.53,-136.1 55,-108 39.8,-90.58 35.77,-63.99 35.1,-44.41" class="faded-stroke"/>
<polygon points="37.9,-44.2 35,-36.23 32.3,-44.26 37.9,-44.2" class="faded-stroke faded-fill"/>
</g>
<!-- CompilerSupportLibraries_jll -->
<g id="node8" class="node">
<title>CompilerSupportLibraries_jll</title>
<polygon fill="none" stroke="none" points="255.5,-108 64.5,-108 64.5,-72 255.5,-72 255.5,-108"/>
<text x="160" y="-86.3" font-size="14.00" fill="gray" class="faded-fill">CompilerSupportLibraries_jll</text>
</g>
<!-- OpenBLAS_jll&#45;&gt;CompilerSupportLibraries_jll -->
<g id="edge9" class="edge">
<title>OpenBLAS_jll-&gt;CompilerSupportLibraries_jll</title>
<path fill="none" d="M191.62,-143.7C186.43,-135.05 180.07,-124.45 174.42,-115.03" class="faded-stroke"/>
<polygon points="176.78,-113.52 170.26,-108.1 171.98,-116.4 176.78,-113.52" class="faded-stroke faded-fill"/>
</g>
<!-- CompilerSupportLibraries_jll&#45;&gt;Libdl -->
<g id="edge11" class="edge">
<title>CompilerSupportLibraries_jll-&gt;Libdl</title>
<path fill="none" d="M194.98,-71.88C214.8,-62.17 239.75,-49.96 260.67,-39.72" class="faded-stroke"/>
<polygon points="261.93,-42.22 267.88,-36.19 259.47,-37.19 261.93,-42.22" class="faded-stroke faded-fill"/>
</g>
<!-- CompilerSupportLibraries_jll&#45;&gt;Artifacts -->
<g id="edge10" class="edge">
<title>CompilerSupportLibraries_jll-&gt;Artifacts</title>
<path fill="none" d="M129.67,-71.88C112.7,-62.3 91.42,-50.28 73.42,-40.13" class="faded-stroke"/>
<polygon points="74.79,-37.68 66.45,-36.19 72.04,-42.56 74.79,-37.68" class="faded-stroke faded-fill"/>
</g>
<!-- Printf -->
<g id="node10" class="node">
<title>Printf</title>
<polygon fill="none" stroke="none" points="493,-324 421,-324 421,-288 493,-288 493,-324"/>
<text x="457" y="-302.3" font-size="14.00" fill="gray" class="faded-fill">Printf</text>
</g>
<!-- Dates&#45;&gt;Printf -->
<g id="edge14" class="edge">
<title>Dates-&gt;Printf</title>
<path fill="none" d="M457,-359.7C457,-351.39 457,-341.28 457,-332.14" class="faded-stroke"/>
<polygon points="459.8,-332.1 457,-324.1 454.2,-332.1 459.8,-332.1" class="faded-stroke faded-fill"/>
</g>
<!-- Unicode -->
<g id="node11" class="node">
<title>Unicode</title>
<polygon fill="none" stroke="none" points="493,-252 421,-252 421,-216 493,-216 493,-252"/>
<text x="457" y="-230.3" font-size="14.00" fill="gray" class="faded-fill">Unicode</text>
</g>
<!-- Printf&#45;&gt;Unicode -->
<g id="edge15" class="edge">
<title>Printf-&gt;Unicode</title>
<path fill="none" d="M457,-287.7C457,-279.39 457,-269.28 457,-260.14" class="faded-stroke"/>
<polygon points="459.8,-260.1 457,-252.1 454.2,-260.1 459.8,-260.1" class="faded-stroke faded-fill"/>
</g>
<!-- SHA -->
<g id="node13" class="node">
<title>SHA</title>
<polygon fill="none" stroke="none" points="583,-324 511,-324 511,-288 583,-288 583,-324"/>
<text x="547" y="-302.3" font-size="14.00" fill="gray" class="faded-fill">SHA</text>
</g>
<!-- Random&#45;&gt;SHA -->
<g id="edge18" class="edge">
<title>Random-&gt;SHA</title>
<path fill="none" d="M547,-359.7C547,-351.39 547,-341.28 547,-332.14" class="faded-stroke"/>
<polygon points="549.8,-332.1 547,-324.1 544.2,-332.1 549.8,-332.1" class="faded-stroke faded-fill"/>
</g>
<!-- Serialization -->
<g id="node14" class="node">
<title>Serialization</title>
<polygon fill="none" stroke="none" points="692.5,-324 601.5,-324 601.5,-288 692.5,-288 692.5,-324"/>
<text x="647" y="-302.3" font-size="14.00" fill="gray" class="faded-fill">Serialization</text>
</g>
<!-- Random&#45;&gt;Serialization -->
<g id="edge19" class="edge">
<title>Random-&gt;Serialization</title>
<path fill="none" d="M571.46,-359.88C584.78,-350.55 601.4,-338.92 615.66,-328.94" class="faded-stroke"/>
<polygon points="617.5,-331.07 622.44,-324.19 614.28,-326.48 617.5,-331.07" class="faded-stroke faded-fill"/>
</g>
</g>
</svg>
